<?xml version="1.0" encoding="UTF-8" standalone="no"?>
<svg
   version="1.1"
   width="394"
   height="469"
   id="svg23"
   sodipodi:docname="switch-casque.svg"
   inkscape:version="1.3.2 (091e20e, 2023-11-25, custom)"
   xmlns:inkscape="http://www.inkscape.org/namespaces/inkscape"
   xmlns:sodipodi="http://sodipodi.sourceforge.net/DTD/sodipodi-0.dtd"
   xmlns="http://www.w3.org/2000/svg"
   xmlns:svg="http://www.w3.org/2000/svg">
  <defs
     id="defs23" />
  <sodipodi:namedview
     id="namedview23"
     pagecolor="#ffffff"
     bordercolor="#666666"
     borderopacity="1.0"
     inkscape:showpageshadow="2"
     inkscape:pageopacity="0.0"
     inkscape:pagecheckerboard="0"
     inkscape:deskcolor="#d1d1d1"
     inkscape:zoom="1.7910448"
     inkscape:cx="161.35833"
     inkscape:cy="347.84167"
     inkscape:window-width="1920"
     inkscape:window-height="1018"
     inkscape:window-x="-6"
     inkscape:window-y="-6"
     inkscape:window-maximized="1"
     inkscape:current-layer="svg23" />
  <path
     d="m 138.87891,114.67188 c 45.5319,27.84309 19.09759,72.19768 12.27291,111.32995 -4.22179,40.56616 -11.83987,67.00491 -24.19808,125.41446 -12.18651,44.00831 -12.06651,45.32558 -14.35788,60.30872 -4.50068,13.71714 -8.38622,36.95721 -17.90216,46.12863 -6.25238,6.02602 -37.261716,8.79367 -29.057031,-26.53723 7.771567,-24.48092 19.62261,-94.25441 20.464878,-98.07507 -0.229985,-4.81476 -163.396387,-13.59293 -160.664097,28.89145 -0.295215,34.80082 1.753085,68.26369 1.771713,79.25372 0.03658,21.58327 -22.536145,20.03496 -32.315783,13.62928 -9.06605,-5.93828 -13.28292,-37.89826 -16.53372,-58.06716 -3.19659,-8.26281 -17.72085,-101.17654 -17.86696,-183.9023 0.0269,-12.14718 1.08654,-25.14009 1.94483,-66.91354 1.06982,-6.48073 0.78332,-23.79376 19,-36 112.0810362,-33.788605 218.237794,-55.255746 257.44138,4.53909 z"
     fill="#a13902"
     transform="translate(188.5625,1.8671875)"
     id="path1"
     sodipodi:nodetypes="ccccscccssccccc"
     style="display:inline" />
  <path
     d="M 2.5428518,-9.5245811 C 3.4501461,22.993635 6.7782906,56.889 8.5354167,89.395833 c -15,-2 -16.4481771,-3.343489 -23.4481767,-5.343489 C -8.9032083,52.920265 -4.5010125,21.433812 2.5428518,-9.5245811 Z"
     fill="#5b0504"
     transform="translate(47,215)"
     id="path17"
     sodipodi:nodetypes="cccc" />
  <path
     d="M 9.1463542,-0.59869791 C 17.288365,2.2082091 24.665516,5.9376285 31.205764,11.346856 c 9.996573,5.67571 13.510342,17.04754 19.59544,26.40416 1.264332,1.922127 2.404146,3.876432 3.53125,5.882813 l 0.994141,1.710449 C 58.156631,57.368393 61.5907,59.973943 61.959018,68.929166 50.942692,116.82598 28.897858,148.69769 -25.467814,158.375 -43.760211,158.58889 -86.863428,115.09873 -98.871598,95.59591 -103.63512,71.288475 -103.3483,65.305097 -102.93502,50.39725 l 6.399864,-18.319125 c 9.949695,-17.519565 26.165266,-28.0446982 44.867187,-34.1679688 22.430198,-6.7934423 39.694265,-4.7481663 60.8143232,1.49114589 z"
     fill="#d2d1d1"
     transform="translate(213,266)"
     id="path3"
     sodipodi:nodetypes="cccccccccccc" />
  <path
     d="m 27.7229,-0.00613403 c 5.329523,0.01878029 10.44059,0.36249511 15.7146,1.13894653 3.664295,0.3598109 16.880924,2.9721869 21.283104,4.2597476 4.005249,0.910711 25.223992,11.3766659 30.716896,18.7402519 0.1875,3.625 0.1875,3.625 0,7 h -2 l -0.07813,1.984375 c -0.592987,9.541701 -2.97191,17.832215 -7.921875,26.015625 -0.795424,2.016748 -0.795424,2.016748 -1.375,4.0625 -1.832269,5.800551 -4.232904,11.349641 -6.625,16.9375 h -2 L 75,82.445312 c -0.5625,2.6875 -0.5625,2.6875 -1.5625,5.6875 h -2 v 2 C 64.18182,90.317273 57.378432,89.82211 50.226562,88.652344 39.38161,87.036877 28.734721,86.703427 17.783691,86.796631 c -3.004986,0.02395 -6.009099,0.02048 -9.0141597,0.01392 -9.62229182,0.01513 -36.4825973,0.72942 -45.9006883,2.914467 -0.303687,10.879762 17.080667,20.578282 19.775688,31.181232 1.094205,4.45228 1.670974,8.94237 2.265625,13.48437 0.387504,2.69577 -0.868746,3.67285 0.290625,5.72708 2.219763,6.73208 -6.908561,7.04028 -11.623698,9.80469 -3.813253,-10.7823 -5.417536,-18.08567 -6.81927,-29.38919 -0.37154,-2.78428 -0.878485,-5.5246 -1.445313,-8.27539 -1.365718,-6.95378 -1.538213,-14.061334 -1.875,-21.124994 l -13,1 0.4375,5.914063 c 0.187613,2.570301 0.375107,5.140611 0.5625,7.710931 l 0.289063,3.89453 0.273437,3.76954 0.253906,3.45947 c 0.174611,3.09238 0.216404,6.155 0.183594,9.25146 3.411526,-0.13897 2.894221,5.8438 3.3125,8.5 l 0.357422,2.39844 c 0.859411,5.37683 2.347511,10.035 4.330078,15.10156 0.1875,3 0.1875,3 0,5 -2.647389,1.46063 -3.894483,2 -7,2 v 2 l -6,1 c -0.506153,-1.26839 -1.004691,-2.53983 -1.5,-3.8125 l -0.84375,-2.14453 c -0.65625,-2.04297 -0.65625,-2.04297 -0.65625,-5.04297 h -2 l -0.585937,-3.32422 c -0.262745,-1.45447 -0.525781,-2.9089 -0.789063,-4.36328 l -0.382812,-2.18554 c -0.551601,-3.02002 -1.060022,-5.71441 -2.304688,-8.53321 -1.462127,-4.04522 -1.409628,-8.13538 -1.5625,-12.40625 l -0.117187,-2.67773 c -0.09382,-2.1696 -0.176886,-4.33965 -0.257813,-6.50977 h -2 V 97.132812 c -21.861668,4.176818 -21.861668,4.176818 -43,10.999998 -3.81606,1.38766 -5.90168,2 -10,2 1.21613,-9.35384 2.52312,-18.683078 4,-27.999998 2.71642,-11.473344 7.93255,-21.986422 14,-32 1.897943,-3.340667 24.561589,-33.772177 61,-43.9999995 22.001397,-6.02873498 44.698478,-6.09029705 67.2854,-6.13894653 z"
     fill="#d54100"
     transform="translate(188.5625,1.8671875)"
     id="path4"
     sodipodi:nodetypes="ccccccccccccccccccccccccccccccccccccccccccccccccccccccccccc" />
  <path
     d="M -3.8385417,-5.5833333 C 2.4400565,-2.9187892 14.185017,12.102401 17,16 32.342474,35.46441 43.428246,63.912467 43.319458,88.542852 23.16655,80.47378 26.282655,78.5758 -1.875,71.0625 -10.699488,68.234003 -19.590437,67.333347 -28.752222,66.127609 L -29,64 h 5 v -2 h 2 l 0.4375,-2.3125 C -21,57 -21,57 -20,54 h 2 l 0.550781,-2.195313 C -16.076763,46.526013 -14.624304,41.811223 -12,37 c 0.74146,-1.676344 1.480684,-3.354004 2.1835937,-5.046875 0.5743311,-1.373998 1.1730123,-2.737945 1.7890625,-4.09375 C -4.8049822,20.458971 -3.3911964,12.904525 -2,5 h 2 z"
     fill="#d54100"
     transform="translate(284,28)"
     id="path9"
     sodipodi:nodetypes="ccccccccccccccccccc" />
  <path
     d="M -0.13958333,-0.87239584 7,0 c 2.1978559,0.30326746 6.791066,0.69112289 20.872396,4.1276042 3.217215,1.0930627 3.055594,1.0195087 11.284896,4.8046875 4.143841,1.7285243 6.187962,3.6689073 9.760416,5.8302083 7.056087,4.459232 4.652571,3.132144 10.538055,7.521077 C 48.363099,83.049778 38.669272,85.209025 33.240754,91.584772 24.881496,90.037382 18.859887,88.419996 10.454304,87.248037 -3.0189495,85.275323 -14.732412,85.940435 -27.179439,85.670891 -22.447468,77.939854 -16.614367,78.074372 -4.1914062,57.617187 5.4762353,35.201558 3.5636139,24.555032 -0.13958333,-0.87239584 Z"
     fill="#fd841e"
     transform="translate(225,3)"
     id="path7"
     sodipodi:nodetypes="ccccccccccc" />
  <path
     d="M -0.8375,0 C 15.261454,8.7489295 21.029426,9.4346622 41.273437,13.316406 95.926135,23.341796 165.57378,8.8622762 167.69792,8.8833333 167.99964,33.066435 167.40252,58.301321 165.6875,82.4375 l -0.17862,2.620514 C 164.78143,95.485873 163.50096,105.6836 161.68433,115.97583 160.92204,120.33701 160.54484,122.63244 159,140 143.16337,98.078841 137.75689,73.8971 84.781534,66.194276 50.144571,66.364585 112.13199,66.108794 75.19755,66.288036 54.132259,66.49595 28.146418,73.902679 13,89 l -2.378906,2.308594 C 2.2127028,99.973078 -2.6277429,110.49465 -6,122 -10.028443,104.03788 -7,68.185344 -7,47 -5.8177531,23.441345 -2.8970164,7.8214654 -0.8375,0 Z"
     fill="#fd8420"
     transform="translate(116,195)"
     id="path5"
     sodipodi:nodetypes="cccccccccccccc" />
  <path
     d="m 51.702197,57.457733 c 27.969915,2.034708 74.549153,8.49047 83.148393,39.980988 1.43752,10.131009 1.86904,14.461019 1.67106,14.491579 -48.282914,9.03242 -109.357484,10.0332 -139.9669625,1.86237 -3.8886458,-1.03587 -7.8096735,-1.87843 -11.7421875,-2.73047 -6.184573,-1.876 -13.368019,-4.654 -16.907292,-9.13958 C -31.215457,96.595194 -24.817269,82.430774 -20.25,78.4372 -6.4398663,65.720686 28.984751,54.790322 51.702197,57.457733 Z"
     fill="#d44100"
     transform="translate(147.1875,92.9375)"
     id="path6"
     sodipodi:nodetypes="ccsccccc"
     style="display:inline" />
  <path
     d="M -0.56752685,0.32077605 C 2.0264324,16.131365 6.9249417,33.807209 8.790625,50.814583 5.0734109,51.311513 -50.1862,58.383415 -61.203079,59.182359 -57.101629,41.619918 -55.937114,36.284513 -51.675,10.069792 -27.580253,7.7032634 -6.5215702,0.32077605 -0.56752685,0.32077605 Z"
     fill="#fc841e"
     transform="translate(364,343)"
     id="path8"
     sodipodi:nodetypes="ccccc" />
  <path
     d="M 0,0 C 4.6120102,1.1504608 8.30468,1.9521757 35.50599,8.1395833 37.728545,25.350968 39.596512,36.210714 43.022917,56 31.669705,56.5231 21.843729,55.060489 10.644043,53.38916 4.1071117,52.848344 -7.422455,51.371735 -9.2333333,51.09375 -8.2690407,46.056081 -4.0304604,16.842301 0,0 Z"
     fill="#fd841e"
     transform="translate(24,343)"
     id="path10"
     sodipodi:nodetypes="cccccc" />
  <path
     d="M 0.39479166,-3.0010417 C 1.5682014,4.8433973 5.4906126,12.531044 16,71 L 13.046875,72.535417 12,73 C 2.8289963,75.806427 -7.3708451,79.723111 -17.072707,79.072707 -11.909992,51.588606 -5.2466696,24.412951 0.39479166,-3.0010417 Z"
     fill="#5b0504"
     transform="translate(340,227)"
     id="path11"
     sodipodi:nodetypes="cccccc" />
  <path
     d="M 0,0 C 1.248279,6.8087227 2.5786538,13.168929 3.4416667,20.279167 -15.232286,25.812157 -39.049353,30.558882 -47.616146,30.139583 -46.434032,23.309909 -43.618246,11.606278 -43,9 -28.678854,6.7217622 -13.251655,3.4352342 0,0 Z"
     fill="#5d0605"
     transform="translate(360,323)"
     id="path12"
     sodipodi:nodetypes="ccccc" />
  <path
     d="M -0.24427083,-1.2911458 C 1.1768175,24.264902 6.1014429,42.06561 10,59 c 0.779702,3 0.631651,3.0987 1.036353,4.703899 C 4.3188159,66.264861 2.5744706,66.152058 -4.2213542,70.081771 -9.1822531,57.649997 -14.147051,27.805303 -14.382324,25.606201 -15.099719,18.051907 -15.50013,9.2012905 -15.296101,1.6181955 -9.0086309,0.11842408 -4.6328994,-0.54921706 -0.24427083,-1.2911458 Z"
     fill="#faf761"
     transform="translate(139,95)"
     id="path13"
     sodipodi:nodetypes="ccccccc" />
  <path
     d="m -0.92422597,-1.2073253 0.4320873,3.0873709 C 0.34113161,12.063999 1.9133839,21.818672 4.2773437,31.773437 c 2.1768238,9.284816 4.3189909,21.756408 5.4434896,28.57448 0,0 -1.6429354,0.2705 -7.2550895,1.170358 -4.8133011,0.771769 -7.9542855,1.714017 -7.9542855,1.714017 C -8.6931132,54.17109 -14.330092,25.19007 -15.697917,0.5463542 c 4.966032,-1.16532573 9.6557746,-1.2321778 14.77369103,-1.7536795 z"
     fill="#fbf762"
     transform="translate(167,91)"
     id="path14"
     sodipodi:nodetypes="ccccsccc" />
  <path
     d="M 4,0 C 4.7068395,2.3059791 7.3020833,17.311598 8,25 -5.8073902,28.904758 -20.246178,32.832802 -34.9013,34.085704 -32.814998,24.437235 -29.752518,12.737405 -29,8 -18.88495,5.563222 -6.7373438,3.627478 4,0 Z"
     fill="#fb8320"
     transform="translate(352,298)"
     id="path15"
     sodipodi:nodetypes="ccccc" />
  <path
     d="M 0,0 C 3.8673624,0.68877833 25.202958,6.1679992 29.246751,6.6545489 29.852435,13.693955 30.705636,21.05667 31.521684,28.194925 19.032138,25.745912 7.6625077,23.580787 -4,20 -2.6122038,13.26027 -1.6185391,6.5906361 0,0 Z"
     fill="#5e0705"
     transform="translate(28,323)"
     id="path18"
     sodipodi:nodetypes="ccccc" />
  <path
     d="M 0.1046875,0.03489583 C 6.9619788,0.89093088 11.568132,2.3527122 23.453646,5.41875 23.980864,8.9151515 24.133877,15.040342 25.279167,30.697917 15.030421,29.086113 5.245394,26.185342 -4,24 -2.4351683,16.199842 -1.0785048,8.3799016 0.1046875,0.03489583 Z"
     fill="#fa821f"
     transform="translate(32,299)"
     id="path19"
     sodipodi:nodetypes="ccccc" />
  <path
     d="M 4.3191514,5.875 C 4.9666156,18.67924 -15.204733,15.202543 -11.296101,3.9012997 -7.8946422,-5.7045101 4.469445,-2.9839954 4.3191514,5.875 Z"
     fill="#f6ef5e"
     transform="translate(188,100)"
     id="path20"
     sodipodi:nodetypes="ccc" />
</svg>
